<svg width="24" height="24" viewBox="0 0 24 24" fill="none" xmlns="http://www.w3.org/2000/svg">
<path d="M21 7.99989C20.9996 7.64917 20.9071 7.3047 20.7315 7.00106C20.556 6.69741 20.3037 6.44526 20 6.26989L13 2.26989C12.696 2.09436 12.3511 2.00195 12 2.00195C11.6489 2.00195 11.304 2.09436 11 2.26989L4 6.26989C3.69626 6.44526 3.44398 6.69741 3.26846 7.00106C3.09294 7.3047 3.00036 7.64917 3 7.99989V15.9999C3.00036 16.3507 3.09294 16.6951 3.26846 16.9988C3.44398 17.3024 3.69626 17.5546 4 17.7299L11 21.7299C11.304 21.9055 11.6489 21.9979 12 21.9979C12.3511 21.9979 12.696 21.9055 13 21.7299L20 17.7299C20.3037 17.5546 20.556 17.3024 20.7315 16.9988C20.9071 16.6951 20.9996 16.3507 21 15.9999V7.99989Z" stroke="#5F6368" stroke-width="2" stroke-linecap="round" stroke-linejoin="round"/>
<path d="M3.30078 7L12.0008 12L20.7008 7" stroke="#5F6368" stroke-width="2" stroke-linecap="round" stroke-linejoin="round"/>
<path d="M12 22V12" stroke="#5F6368" stroke-width="2" stroke-linecap="round" stroke-linejoin="round"/>
</svg>
